<?xml version="1.0" encoding="UTF-8" standalone="no"?>
<svg
   style="height: 512px; width: 512px;"
   viewBox="0 0 512 512"
   version="1.1"
   id="svg2"
   sodipodi:docname="d12.svg"
   inkscape:version="1.3.2 (091e20e, 2023-11-25, custom)"
   xmlns:inkscape="http://www.inkscape.org/namespaces/inkscape"
   xmlns:sodipodi="http://sodipodi.sourceforge.net/DTD/sodipodi-0.dtd"
   xmlns="http://www.w3.org/2000/svg"
   xmlns:svg="http://www.w3.org/2000/svg">
  <defs
     id="defs2" />
  <sodipodi:namedview
     id="namedview2"
     pagecolor="#ffffff"
     bordercolor="#000000"
     borderopacity="0.25"
     inkscape:showpageshadow="2"
     inkscape:pageopacity="0.0"
     inkscape:pagecheckerboard="0"
     inkscape:deskcolor="#d1d1d1"
     inkscape:zoom="1.6035156"
     inkscape:cx="323.66382"
     inkscape:cy="256"
     inkscape:window-width="1920"
     inkscape:window-height="1017"
     inkscape:window-x="-8"
     inkscape:window-y="-8"
     inkscape:window-maximized="1"
     inkscape:current-layer="svg2" />
  <path
     d="M0 0h512v512H0z"
     fill="#f20a0a"
     fill-opacity="0"
     id="path1" />
  <g
     class=""
     transform="translate(538.81608,-26.192448)"
     id="g2">
    <path
       d="m -87.399819,203.80467 -70.484001,-97.064 -114.056,-36.965 v 92.652 l 96.384,70.031 z m -203.619001,-41.377 v -92.652 l -114.056,36.965 -70.484,97.064 88.156,28.618 z m -47.96,193.614 h 114.998 l 35.51,-109.37 -93.009,-67.598 -93.009,67.599 z m -2.122,19.079 -54.434,75.04 114.055,36.965 114.056,-36.965 -54.434,-75.04 z m 171.375,-124.561 -36.81,113.28 54.483,74.993 70.484001,-97.016 v -119.863 z m -223.687,0 -88.156,-28.618 v 119.934 l 70.484,97.016 54.482,-74.992 z"
       fill="#ffffff"
       fill-opacity="1"
       id="path2"
       sodipodi:nodetypes="cccccccccccccccccccccccccccccccccccccc" />
  </g>
</svg>
