<?xml version="1.0" encoding="UTF-8" standalone="no"?>
<svg
   viewBox="0 0 512 512"
   version="1.1"
   id="svg1"
   sodipodi:docname="d20.svg"
   inkscape:version="1.3.2 (091e20e, 2023-11-25, custom)"
   xmlns:inkscape="http://www.inkscape.org/namespaces/inkscape"
   xmlns:sodipodi="http://sodipodi.sourceforge.net/DTD/sodipodi-0.dtd"
   xmlns="http://www.w3.org/2000/svg"
   xmlns:svg="http://www.w3.org/2000/svg">
  <defs
     id="defs1" />
  <sodipodi:namedview
     id="namedview1"
     pagecolor="#ffffff"
     bordercolor="#000000"
     borderopacity="0.25"
     inkscape:showpageshadow="2"
     inkscape:pageopacity="0.0"
     inkscape:pagecheckerboard="0"
     inkscape:deskcolor="#d1d1d1"
     inkscape:zoom="0.40087891"
     inkscape:cx="1569.0524"
     inkscape:cy="537.56882"
     inkscape:window-width="1920"
     inkscape:window-height="1017"
     inkscape:window-x="-8"
     inkscape:window-y="-8"
     inkscape:window-maximized="1"
     inkscape:current-layer="svg1" />
  <path
     fill="#ffffff"
     d="M 253.17556,21.024326 77.175558,133.32433 l 176.000002,-3.8 z m 16,0 V 129.52433 l 175.7,3.8 z m -21.9999,124.600004 -187.000102,4.1 72.000102,192.9 z m 27.9999,0 115.4,197 71.2,-192.9 z m -14,7.5 -116.9999,200.2 h 234.0999 z m -204.000002,33.6 v 173.2 l 62.000102,-5.7 z m 408.000002,0 -61.9,167.5 61.9,5.7 z m -316.9999,182.6 112.9999,123.1 112.8,-123.1 z m -21,0.3 -54.000102,4.9 c 46.911702,30.17564 94.051502,59.98066 141.000102,90.1 z m 265.995,-3.52778 c -26.7447,35.48631 -53.4442,67.4828 -84.7951,98.52778 l 140.8,-90.1 z"
     id="path1"
     sodipodi:nodetypes="cccccccccccccccccccccccccccccccccccccccc" />
</svg>
